<?xml version="1.0" encoding="UTF-8" standalone="no"?>
<svg
   xmlns:dc="http://purl.org/dc/elements/1.1/"
   xmlns:cc="http://creativecommons.org/ns#"
   xmlns:rdf="http://www.w3.org/1999/02/22-rdf-syntax-ns#"
   xmlns:svg="http://www.w3.org/2000/svg"
   xmlns="http://www.w3.org/2000/svg"
   xmlns:sodipodi="http://sodipodi.sourceforge.net/DTD/sodipodi-0.dtd"
   xmlns:inkscape="http://www.inkscape.org/namespaces/inkscape"
   width="125"
   height="33"
   viewBox="0 0 33.072916 8.7312507"
   version="1.1"
   id="svg2572"
   inkscape:version="1.0.2 (e86c870879, 2021-01-15, custom)"
   sodipodi:docname="horz-dark.svg">
  <defs
     id="defs2566" />
  <sodipodi:namedview
     id="base"
     pagecolor="#ffffff"
     bordercolor="#666666"
     borderopacity="1.0"
     inkscape:pageopacity="0.0"
     inkscape:pageshadow="2"
     inkscape:zoom="1.979899"
     inkscape:cx="36.509818"
     inkscape:cy="97.666462"
     inkscape:document-units="mm"
     inkscape:current-layer="layer1"
     inkscape:document-rotation="0"
     showgrid="false"
     units="px"
     inkscape:window-width="1536"
     inkscape:window-height="864"
     inkscape:window-x="0"
     inkscape:window-y="0"
     inkscape:window-maximized="0" />
  <metadata
     id="metadata2569">
    <rdf:RDF>
      <cc:Work
         rdf:about="">
        <dc:format>image/svg+xml</dc:format>
        <dc:type
           rdf:resource="http://purl.org/dc/dcmitype/StillImage" />
        <dc:title></dc:title>
      </cc:Work>
    </rdf:RDF>
  </metadata>
  <g
     inkscape:label="Layer 1"
     inkscape:groupmode="layer"
     id="layer1">
    <g
       id="g1017"
       style="fill:#254aa5"
       transform="matrix(1.0576626,0,0,1.0576626,-0.71494234,-1.1420601)">
      <g
         id="g1449"
         transform="matrix(0.13893543,0,0,-0.13893543,22.572875,4.4276065)"
         style="fill:#254aa5;fill-opacity:1">
        <path
           d="m 0,0 c 1.849,1.186 4.159,1.159 5.745,0.614 l 0.23,4.322 C 1.101,6.231 -1.414,3.453 -2.278,2.179 L -2.951,1.188 v 3.655 h -4.527 v -21.87 h 4.708 v 11.15 c 0,3.39 1.506,5.067 2.77,5.877"
           style="fill:#254aa5;fill-opacity:1;fill-rule:nonzero;stroke:none"
           id="path1451" />
      </g>
      <path
         d="m 26.839763,6.7933573 h 0.654108 V 2.4953898 h -0.654108 z"
         style="fill:#254aa5;fill-opacity:1;fill-rule:nonzero;stroke:none;stroke-width:0.138935"
         id="path1453" />
      <g
         id="g1455"
         transform="matrix(0.13893543,0,0,-0.13893543,30.938928,5.292021)"
         style="fill:#254aa5;fill-opacity:1">
        <path
           d="m 0,0 c 0,6.797 -4.399,11.545 -10.699,11.545 -6.799,0 -11.733,-4.856 -11.733,-11.545 0,-6.338 5.032,-11.494 11.216,-11.494 4.819,0 8.391,1.459 10.229,2.89 l -1.662,3.069 c -3.103,-2.195 -6.645,-2.439 -8.06,-2.439 -3.565,0 -7.033,2.346 -7.584,5.861 -0.16,1.021 -0.339,2.426 -0.095,4.136 0.506,3.543 4.507,5.726 7.486,5.726 2.976,0 6.307,-2.117 6.499,-5.538 l 0.022,-0.389 h -12.806 l 0.043,-3.505 H -0.121 C -0.041,-1.119 0,-0.556 0,0"
           style="fill:#254aa5;fill-opacity:1;fill-rule:nonzero;stroke:none"
           id="path1457" />
      </g>
      <g
         id="g1459"
         transform="matrix(0.13893543,0,0,-0.13893543,25.914522,4.7763066)"
         style="fill:#254aa5;fill-opacity:1">
        <path
           d="m 0,0 3.896,2.147 c -2.01,3.635 -5.72,5.711 -10.235,5.711 -6.893,0 -11.706,-4.757 -11.706,-11.57 0,-6.704 4.922,-11.57 11.706,-11.57 4.444,0 8.124,2.024 10.154,5.571 l -3.859,2.157 c -1.344,-2.154 -3.724,-3.476 -6.295,-3.476 -3.987,0 -7.11,3.215 -7.11,7.318 0,4.05 3.056,7.103 7.11,7.103 2.626,0 5.02,-1.29 6.339,-3.391"
           style="fill:#254aa5;fill-opacity:1;fill-rule:nonzero;stroke:none"
           id="path1461" />
      </g>
      <g
         id="g1463"
         transform="matrix(0.13893543,0,0,-0.13893543,18.134944,2.5466847)"
         style="fill:#254aa5;fill-opacity:1">
        <path
           d="m 0,0 c -8.758,0 -15.883,-7.043 -15.883,-15.701 0,-8.658 7.125,-15.701 15.883,-15.701 5.077,0 9.852,2.41 12.841,6.465 l -3.612,3.084 C 7.158,-24.792 3.74,-26.534 0,-26.534 c -6.069,0 -10.646,4.657 -10.646,10.833 0,6.176 4.577,10.833 10.646,10.833 3.641,0 7.004,-1.669 9.087,-4.486 l 3.435,3.313 C 9.488,-2.197 4.943,0 0,0"
           style="fill:#254aa5;fill-opacity:1;fill-rule:nonzero;stroke:none"
           id="path1465" />
      </g>
      <g
         id="g1467"
         transform="matrix(0.13893543,0,0,-0.13893543,20.618012,2.6385349)"
         style="fill:#254aa5;fill-opacity:1">
        <path
           d="m 0,0 c -1.662,0 -3.015,-1.352 -3.015,-3.015 0,-1.662 1.353,-3.013 3.015,-3.013 1.662,0 3.014,1.351 3.014,3.013 C 3.014,-1.352 1.662,0 0,0"
           style="fill:#254aa5;fill-opacity:1;fill-rule:nonzero;stroke:none"
           id="path1469" />
      </g>
      <path
         d="m 20.301184,6.7933573 h 0.654108 V 3.7548394 h -0.654108 z"
         style="fill:#254aa5;fill-opacity:1;fill-rule:nonzero;stroke:none;stroke-width:0.138935"
         id="path1471" />
      <path
         d="m 13.386645,3.7548394 h -0.654108 v 3.0385179 h 0.654108 z"
         style="fill:#254aa5;fill-opacity:1;fill-rule:nonzero;stroke:none;stroke-width:0.138935"
         id="path1473" />
      <g
         id="g1475"
         transform="matrix(0.13893543,0,0,-0.13893543,15.588188,4.7655808)"
         style="fill:#254aa5;fill-opacity:1">
        <path
           d="m 0,0 c -0.447,5.388 -4.776,7.842 -8.61,7.842 -3.202,0 -5.137,-1.769 -6.052,-2.909 V 1.296 c 0.812,1.307 2.165,2.348 4.438,2.348 4.712,0 5.457,-4.351 5.558,-6.221 l 0.001,-12.018 h 4.707 v 14.356 z"
           style="fill:#254aa5;fill-opacity:1;fill-rule:nonzero;stroke:none"
           id="path1477" />
      </g>
      <g
         id="g1479"
         transform="matrix(0.13893543,0,0,-0.13893543,12.739873,8.2446629)"
         style="fill:#254aa5;fill-opacity:1">
        <path
           d="M 0,0 C 0,0.281 -0.009,0.545 -0.026,0.792 -0.044,1.039 -0.053,1.263 -0.053,1.465 H 0.924 C 0.924,1.297 0.928,1.131 0.937,0.963 0.946,0.795 0.951,0.624 0.951,0.447 h 0.026 c 0.07,0.15 0.169,0.296 0.297,0.437 0.127,0.14 0.279,0.266 0.455,0.376 0.177,0.11 0.375,0.198 0.594,0.263 0.22,0.067 0.458,0.1 0.713,0.1 0.405,0 0.755,-0.062 1.049,-0.186 C 4.38,1.314 4.624,1.144 4.818,0.924 5.012,0.703 5.154,0.437 5.247,0.124 5.339,-0.187 5.385,-0.528 5.385,-0.898 V -4.713 H 4.356 v 3.708 c 0,0.52 -0.114,0.93 -0.343,1.229 C 3.784,0.522 3.427,0.673 2.944,0.673 2.609,0.673 2.321,0.615 2.079,0.502 1.836,0.387 1.639,0.224 1.485,0.013 1.331,-0.198 1.217,-0.449 1.142,-0.741 1.067,-1.031 1.029,-1.353 1.029,-1.704 V -4.713 H 0 Z"
           style="fill:#254aa5;fill-opacity:1;fill-rule:nonzero;stroke:none"
           id="path1481" />
      </g>
      <g
         id="g1483"
         transform="matrix(0.13893543,0,0,-0.13893543,13.820013,8.1621769)"
         style="fill:#254aa5;fill-opacity:1">
        <path
           d="M 0,0 H -1.346 V 0.871 H 0 V 2.256 C 0,2.635 0.035,2.98 0.105,3.292 0.176,3.605 0.297,3.876 0.469,4.104 0.64,4.334 0.867,4.512 1.149,4.64 1.43,4.768 1.777,4.83 2.191,4.83 2.323,4.83 2.464,4.817 2.614,4.79 2.763,4.765 2.887,4.725 2.983,4.673 L 2.838,3.748 C 2.592,3.836 2.358,3.881 2.139,3.881 1.875,3.881 1.667,3.835 1.519,3.743 1.369,3.649 1.256,3.521 1.182,3.358 1.106,3.196 1.063,2.999 1.05,2.772 1.036,2.543 1.03,2.296 1.03,2.032 V 0.871 H 2.534 V 0 H 1.03 V -5.307 H 0 Z"
           style="fill:#254aa5;fill-opacity:1;fill-rule:nonzero;stroke:none"
           id="path1485" />
      </g>
      <path
         d="m 14.32432,8.0411364 h 0.143104 V 8.8994795 H 14.32432 Z M 14.29139,7.8213405 c 0,-0.028065 0.01,-0.052656 0.03029,-0.073358 0.02014,-0.02084 0.04488,-0.031122 0.07419,-0.031122 0.02932,0 0.05405,0.010281 0.07433,0.031122 0.02014,0.020701 0.03015,0.045293 0.03015,0.073358 0,0.030705 -0.0097,0.055574 -0.02932,0.075164 -0.01945,0.01959 -0.0446,0.029315 -0.07516,0.029315 -0.03057,0 -0.05571,-0.00973 -0.07516,-0.029315 -0.01959,-0.01959 -0.02932,-0.044459 -0.02932,-0.075164"
         style="fill:#254aa5;fill-opacity:1;fill-rule:nonzero;stroke:none;stroke-width:0.138935"
         id="path1487" />
      <g
         id="g1489"
         transform="matrix(0.13893543,0,0,-0.13893543,14.738765,8.2446629)"
         style="fill:#254aa5;fill-opacity:1">
        <path
           d="M 0,0 C 0,0.281 -0.009,0.545 -0.026,0.792 -0.044,1.039 -0.053,1.263 -0.053,1.465 H 0.924 C 0.924,1.297 0.928,1.131 0.937,0.963 0.946,0.795 0.951,0.624 0.951,0.447 h 0.026 c 0.07,0.15 0.169,0.296 0.297,0.437 0.127,0.14 0.279,0.266 0.455,0.376 0.176,0.11 0.375,0.198 0.594,0.263 0.22,0.067 0.458,0.1 0.713,0.1 0.405,0 0.755,-0.062 1.049,-0.186 C 4.38,1.314 4.624,1.144 4.818,0.924 5.011,0.703 5.154,0.437 5.247,0.124 5.339,-0.187 5.385,-0.528 5.385,-0.898 v -3.815 h -1.03 v 3.708 c 0,0.52 -0.113,0.93 -0.342,1.229 C 3.784,0.522 3.427,0.673 2.944,0.673 2.609,0.673 2.321,0.615 2.079,0.502 1.836,0.387 1.639,0.224 1.485,0.013 1.331,-0.198 1.217,-0.449 1.142,-0.741 1.067,-1.031 1.029,-1.353 1.029,-1.704 V -4.713 H 0 Z"
           style="fill:#254aa5;fill-opacity:1;fill-rule:nonzero;stroke:none"
           id="path1491" />
      </g>
      <path
         d="m 15.758412,8.0411364 h 0.143103 v 0.8583431 h -0.143103 z m -0.03293,-0.2197959 c 0,-0.028065 0.01,-0.052656 0.03029,-0.073358 0.02001,-0.02084 0.04488,-0.031122 0.07419,-0.031122 0.02932,0 0.05405,0.010281 0.07433,0.031122 0.02015,0.020701 0.03015,0.045293 0.03015,0.073358 0,0.030705 -0.0097,0.055574 -0.02932,0.075164 -0.01959,0.01959 -0.0446,0.029315 -0.07516,0.029315 -0.03057,0 -0.05571,-0.00973 -0.0753,-0.029315 -0.01945,-0.01959 -0.02918,-0.044459 -0.02918,-0.075164"
         style="fill:#254aa5;fill-opacity:1;fill-rule:nonzero;stroke:none;stroke-width:0.138935"
         id="path1493" />
      <g
         id="g1495"
         transform="matrix(0.13893543,0,0,-0.13893543,16.642347,8.1621769)"
         style="fill:#254aa5;fill-opacity:1">
        <path
           d="m 0,0 h -1.822 v -3.088 c 0,-0.204 0.005,-0.391 0.014,-0.563 0.008,-0.17 0.043,-0.322 0.105,-0.448 0.061,-0.129 0.154,-0.229 0.277,-0.304 0.124,-0.075 0.3,-0.112 0.528,-0.112 0.149,0 0.304,0.017 0.462,0.052 0.159,0.035 0.308,0.089 0.449,0.159 l 0.04,-0.937 c -0.177,-0.079 -0.372,-0.136 -0.588,-0.172 -0.215,-0.034 -0.42,-0.052 -0.614,-0.052 -0.37,0 -0.664,0.049 -0.884,0.145 -0.22,0.096 -0.392,0.232 -0.515,0.409 -0.123,0.176 -0.204,0.393 -0.244,0.654 -0.04,0.259 -0.06,0.547 -0.06,0.864 V 0 h -1.345 v 0.871 h 1.345 v 1.755 h 1.03 V 0.871 H 0 Z"
           style="fill:#254aa5;fill-opacity:1;fill-rule:nonzero;stroke:none"
           id="path1497" />
      </g>
      <g
         id="g1499"
         transform="matrix(0.13893543,0,0,-0.13893543,17.449298,8.3935044)"
         style="fill:#254aa5;fill-opacity:1">
        <path
           d="M 0,0 C -0.018,0.528 -0.189,0.952 -0.515,1.269 -0.841,1.585 -1.29,1.744 -1.861,1.744 -2.434,1.744 -2.896,1.585 -3.248,1.269 -3.6,0.952 -3.811,0.528 -3.881,0 Z M 0.884,-2.52 C 0.514,-2.996 0.109,-3.328 -0.33,-3.516 -0.771,-3.705 -1.281,-3.8 -1.861,-3.8 c -0.485,0 -0.92,0.086 -1.307,0.257 -0.387,0.171 -0.715,0.403 -0.983,0.693 -0.269,0.29 -0.475,0.634 -0.621,1.031 -0.145,0.396 -0.218,0.818 -0.218,1.265 0,0.477 0.079,0.913 0.238,1.315 0.158,0.399 0.378,0.743 0.66,1.029 0.281,0.285 0.615,0.508 1.003,0.667 0.387,0.158 0.809,0.237 1.267,0.237 0.431,0 0.827,-0.073 1.188,-0.216 C -0.273,2.331 0.037,2.12 0.297,1.843 0.556,1.564 0.756,1.226 0.897,0.827 1.038,0.425 1.108,-0.03 1.108,-0.539 v -0.33 h -4.989 c 0.017,-0.265 0.081,-0.517 0.192,-0.761 0.109,-0.241 0.252,-0.452 0.429,-0.633 0.176,-0.179 0.382,-0.323 0.619,-0.429 0.238,-0.106 0.497,-0.158 0.78,-0.158 0.448,0 0.826,0.079 1.135,0.239 0.308,0.157 0.584,0.389 0.831,0.698 z"
           style="fill:#254aa5;fill-opacity:1;fill-rule:nonzero;stroke:none"
           id="path1501" />
      </g>
      <g
         id="g1503"
         transform="matrix(0.13893543,0,0,-0.13893543,18.445048,8.470433)"
         style="fill:#254aa5;fill-opacity:1">
        <path
           d="m 0,0 c 0,-0.324 0.05,-0.626 0.151,-0.904 0.101,-0.277 0.249,-0.52 0.443,-0.726 0.193,-0.207 0.424,-0.369 0.692,-0.488 0.269,-0.117 0.57,-0.178 0.905,-0.178 0.334,0 0.636,0.061 0.904,0.178 0.268,0.119 0.499,0.281 0.693,0.488 0.193,0.206 0.341,0.449 0.442,0.726 C 4.332,-0.626 4.381,-0.324 4.381,0 4.381,0.326 4.332,0.629 4.23,0.904 4.129,1.183 3.981,1.424 3.788,1.63 3.594,1.837 3.363,2.001 3.095,2.118 2.827,2.239 2.525,2.298 2.191,2.298 1.856,2.298 1.555,2.239 1.286,2.118 1.018,2.001 0.787,1.837 0.594,1.63 0.4,1.424 0.252,1.183 0.151,0.904 0.05,0.629 0,0.326 0,0 M -1.03,3.09 H 0 V 2.193 H 0.026 C 0.308,2.525 0.636,2.785 1.009,2.971 1.383,3.156 1.795,3.248 2.244,3.248 2.728,3.248 3.17,3.166 3.57,3.004 3.97,2.842 4.311,2.615 4.593,2.325 4.875,2.033 5.095,1.69 5.253,1.295 5.411,0.898 5.491,0.468 5.491,0 5.491,-0.465 5.411,-0.896 5.253,-1.293 5.095,-1.689 4.876,-2.032 4.6,-2.322 4.323,-2.613 3.995,-2.84 3.616,-3.002 3.238,-3.166 2.833,-3.246 2.402,-3.246 c -0.555,0 -1.041,0.12 -1.459,0.361 -0.418,0.243 -0.724,0.54 -0.917,0.893 H 0 v -4.106 h -1.03 z"
           style="fill:#254aa5;fill-opacity:1;fill-rule:nonzero;stroke:none"
           id="path1505" />
      </g>
      <g
         id="g1507"
         transform="matrix(0.13893543,0,0,-0.13893543,19.52152,8.470433)"
         style="fill:#254aa5;fill-opacity:1">
        <path
           d="m 0,0 c 0,-0.324 0.05,-0.626 0.152,-0.904 0.1,-0.277 0.248,-0.52 0.442,-0.726 0.193,-0.207 0.424,-0.369 0.693,-0.488 0.269,-0.117 0.57,-0.178 0.904,-0.178 0.334,0 0.636,0.061 0.904,0.178 0.269,0.119 0.5,0.281 0.693,0.488 0.194,0.206 0.341,0.449 0.442,0.726 0.102,0.278 0.152,0.58 0.152,0.904 0,0.326 -0.05,0.629 -0.152,0.904 C 4.129,1.183 3.982,1.424 3.788,1.63 3.595,1.837 3.364,2.001 3.095,2.118 2.827,2.239 2.525,2.298 2.191,2.298 1.857,2.298 1.556,2.239 1.287,2.118 1.018,2.001 0.787,1.837 0.594,1.63 0.4,1.424 0.252,1.183 0.152,0.904 0.05,0.629 0,0.326 0,0 m -1.108,0 c 0,0.485 0.083,0.924 0.25,1.32 0.167,0.397 0.396,0.738 0.687,1.024 0.29,0.285 0.637,0.508 1.042,0.667 0.405,0.158 0.845,0.237 1.32,0.237 0.475,0 0.915,-0.079 1.32,-0.237 C 3.916,2.852 4.263,2.629 4.554,2.344 4.844,2.058 5.073,1.717 5.241,1.32 5.407,0.924 5.491,0.485 5.491,0 5.491,-0.483 5.407,-0.924 5.241,-1.32 5.073,-1.716 4.844,-2.057 4.554,-2.342 4.263,-2.629 3.916,-2.85 3.511,-3.01 3.106,-3.167 2.666,-3.246 2.191,-3.246 c -0.475,0 -0.915,0.079 -1.32,0.236 -0.405,0.16 -0.752,0.381 -1.042,0.668 -0.291,0.285 -0.52,0.626 -0.687,1.022 -0.167,0.396 -0.25,0.837 -0.25,1.32"
           style="fill:#254aa5;fill-opacity:1;fill-rule:nonzero;stroke:none"
           id="path1509" />
      </g>
      <g
         id="g1511"
         transform="matrix(0.13893543,0,0,-0.13893543,20.511782,8.6738205)"
         style="fill:#254aa5;fill-opacity:1">
        <path
           d="m 0,0 c 0.203,-0.255 0.425,-0.459 0.667,-0.608 0.242,-0.15 0.548,-0.224 0.917,-0.224 0.159,0 0.319,0.017 0.482,0.052 0.163,0.035 0.31,0.093 0.442,0.172 0.133,0.08 0.238,0.177 0.317,0.296 0.079,0.12 0.119,0.263 0.119,0.43 0,0.166 -0.037,0.304 -0.113,0.41 C 2.757,0.633 2.658,0.724 2.535,0.798 2.412,0.873 2.271,0.933 2.112,0.976 1.954,1.02 1.791,1.06 1.624,1.095 1.333,1.157 1.056,1.228 0.792,1.306 0.528,1.385 0.297,1.488 0.099,1.616 c -0.198,0.128 -0.356,0.293 -0.475,0.495 -0.119,0.202 -0.178,0.462 -0.178,0.78 0,0.297 0.066,0.562 0.198,0.792 0.132,0.228 0.308,0.418 0.527,0.566 0.221,0.151 0.467,0.265 0.74,0.344 0.273,0.08 0.554,0.119 0.845,0.119 0.44,0 0.847,-0.088 1.221,-0.265 C 3.351,4.271 3.644,3.987 3.854,3.591 L 2.996,3.022 C 2.864,3.242 2.69,3.42 2.476,3.557 2.259,3.694 1.998,3.762 1.69,3.762 1.549,3.762 1.406,3.743 1.261,3.708 1.116,3.674 0.986,3.619 0.872,3.551 0.757,3.479 0.662,3.39 0.588,3.279 0.513,3.169 0.476,3.044 0.476,2.903 0.476,2.771 0.518,2.659 0.601,2.566 0.685,2.475 0.799,2.394 0.944,2.322 1.089,2.252 1.256,2.19 1.446,2.139 1.634,2.084 1.831,2.041 2.033,2.007 2.305,1.952 2.565,1.885 2.812,1.801 3.058,1.717 3.274,1.604 3.458,1.464 3.644,1.323 3.789,1.148 3.894,0.936 4,0.727 4.052,0.465 4.052,0.158 4.052,-0.195 3.982,-0.493 3.841,-0.74 3.7,-0.987 3.514,-1.187 3.28,-1.34 3.047,-1.495 2.783,-1.607 2.488,-1.678 2.193,-1.748 1.892,-1.782 1.584,-1.782 c -0.528,0 -0.983,0.08 -1.366,0.244 -0.383,0.162 -0.728,0.463 -1.036,0.904 z"
           style="fill:#254aa5;fill-opacity:1;fill-rule:nonzero;stroke:none"
           id="path1513" />
      </g>
      <g
         id="g1515"
         transform="matrix(0.13893543,0,0,-0.13893543,21.280123,8.6738205)"
         style="fill:#254aa5;fill-opacity:1">
        <path
           d="m 0,0 c 0.203,-0.255 0.425,-0.459 0.667,-0.608 0.242,-0.15 0.548,-0.224 0.917,-0.224 0.159,0 0.319,0.017 0.482,0.052 0.163,0.035 0.31,0.093 0.443,0.172 0.132,0.08 0.237,0.177 0.316,0.296 0.08,0.12 0.119,0.263 0.119,0.43 0,0.166 -0.037,0.304 -0.112,0.41 C 2.757,0.633 2.658,0.724 2.535,0.798 2.412,0.873 2.271,0.933 2.112,0.976 1.954,1.02 1.791,1.06 1.624,1.095 1.333,1.157 1.056,1.228 0.792,1.306 0.528,1.385 0.297,1.488 0.099,1.616 c -0.198,0.128 -0.356,0.293 -0.475,0.495 -0.119,0.202 -0.178,0.462 -0.178,0.78 0,0.297 0.066,0.562 0.199,0.792 0.131,0.228 0.307,0.418 0.527,0.566 0.22,0.151 0.466,0.265 0.74,0.344 0.272,0.08 0.553,0.119 0.844,0.119 0.44,0 0.847,-0.088 1.221,-0.265 C 3.351,4.271 3.644,3.987 3.854,3.591 L 2.997,3.022 C 2.864,3.242 2.691,3.42 2.476,3.557 2.26,3.694 1.998,3.762 1.69,3.762 1.549,3.762 1.406,3.743 1.261,3.708 1.116,3.674 0.986,3.619 0.872,3.551 0.757,3.479 0.663,3.39 0.588,3.279 0.513,3.169 0.476,3.044 0.476,2.903 0.476,2.771 0.518,2.659 0.601,2.566 0.685,2.475 0.799,2.394 0.944,2.322 1.089,2.252 1.256,2.19 1.446,2.139 1.635,2.084 1.831,2.041 2.033,2.007 2.306,1.952 2.565,1.885 2.812,1.801 3.058,1.717 3.274,1.604 3.458,1.464 3.644,1.323 3.789,1.148 3.894,0.936 4,0.727 4.053,0.465 4.053,0.158 4.053,-0.195 3.982,-0.493 3.842,-0.74 3.7,-0.987 3.514,-1.187 3.281,-1.34 3.047,-1.495 2.783,-1.607 2.488,-1.678 2.193,-1.748 1.892,-1.782 1.584,-1.782 c -0.528,0 -0.983,0.08 -1.366,0.244 -0.383,0.162 -0.728,0.463 -1.036,0.904 z"
           style="fill:#254aa5;fill-opacity:1;fill-rule:nonzero;stroke:none"
           id="path1517" />
      </g>
      <path
         d="m 22.043017,8.0411364 h 0.143104 v 0.8583431 h -0.143104 z m -0.03293,-0.2197959 c 0,-0.028065 0.01,-0.052656 0.03029,-0.073358 0.02015,-0.02084 0.04474,-0.031122 0.07419,-0.031122 0.02932,0 0.05405,0.010281 0.07433,0.031122 0.02015,0.020701 0.03015,0.045293 0.03015,0.073358 0,0.030705 -0.0097,0.055574 -0.02932,0.075164 -0.01945,0.01959 -0.0446,0.029315 -0.07516,0.029315 -0.03057,0 -0.05571,-0.00973 -0.07516,-0.029315 -0.01959,-0.01959 -0.02932,-0.044459 -0.02932,-0.075164"
         style="fill:#254aa5;fill-opacity:1;fill-rule:nonzero;stroke:none;stroke-width:0.138935"
         id="path1519" />
      <g
         id="g1521"
         transform="matrix(0.13893543,0,0,-0.13893543,22.593299,8.470433)"
         style="fill:#254aa5;fill-opacity:1">
        <path
           d="m 0,0 c 0,-0.324 0.05,-0.626 0.151,-0.904 0.101,-0.277 0.249,-0.52 0.443,-0.726 0.193,-0.207 0.424,-0.369 0.693,-0.488 0.268,-0.117 0.569,-0.178 0.904,-0.178 0.334,0 0.636,0.061 0.904,0.178 0.269,0.119 0.5,0.281 0.694,0.488 0.192,0.206 0.34,0.449 0.441,0.726 0.102,0.278 0.152,0.58 0.152,0.904 0,0.326 -0.05,0.629 -0.152,0.904 C 4.129,1.183 3.981,1.424 3.789,1.63 3.595,1.837 3.364,2.001 3.095,2.118 2.827,2.239 2.525,2.298 2.191,2.298 1.856,2.298 1.555,2.239 1.287,2.118 1.018,2.001 0.787,1.837 0.594,1.63 0.4,1.424 0.252,1.183 0.151,0.904 0.05,0.629 0,0.326 0,0 M -1.03,6.892 H 0 V 2.193 H 0.026 C 0.308,2.525 0.636,2.785 1.01,2.971 1.383,3.156 1.795,3.248 2.244,3.248 2.728,3.248 3.17,3.166 3.57,3.004 3.971,2.842 4.312,2.615 4.593,2.325 4.875,2.033 5.095,1.69 5.253,1.295 5.411,0.898 5.491,0.468 5.491,0 5.491,-0.465 5.411,-0.896 5.253,-1.293 5.095,-1.689 4.877,-2.032 4.6,-2.322 4.323,-2.613 3.995,-2.84 3.616,-3.002 3.238,-3.166 2.833,-3.246 2.402,-3.246 c -0.554,0 -1.041,0.12 -1.459,0.361 -0.418,0.243 -0.723,0.54 -0.917,0.893 H 0 v -1.096 h -1.03 z"
           style="fill:#254aa5;fill-opacity:1;fill-rule:nonzero;stroke:none"
           id="path1523" />
      </g>
      <path
         d="m 23.578115,8.0411364 h 0.142964 v 0.8583431 h -0.142964 z m -0.03307,-0.2197959 c 0,-0.028065 0.01014,-0.052656 0.03043,-0.073358 0.02015,-0.02084 0.04474,-0.031122 0.07419,-0.031122 0.02932,0 0.05405,0.010281 0.07419,0.031122 0.02015,0.020701 0.03029,0.045293 0.03029,0.073358 0,0.030705 -0.0097,0.055574 -0.02932,0.075164 -0.01959,0.01959 -0.04474,0.029315 -0.07516,0.029315 -0.03056,0 -0.05571,-0.00973 -0.0753,-0.029315 -0.01945,-0.01959 -0.02932,-0.044459 -0.02932,-0.075164"
         style="fill:#254aa5;fill-opacity:1;fill-rule:nonzero;stroke:none;stroke-width:0.138935"
         id="path1525" />
      <path
         d="m 24.005341,7.5129039 h 0.143104 v 1.3864366 h -0.143104 z"
         style="fill:#254aa5;fill-opacity:1;fill-rule:nonzero;stroke:none;stroke-width:0.138935"
         id="path1527" />
      <path
         d="m 24.434513,8.0411364 h 0.143103 v 0.8583431 h -0.143103 z m -0.03307,-0.2197959 c 0,-0.028065 0.01014,-0.052656 0.03043,-0.073358 0.02001,-0.02084 0.04474,-0.031122 0.07419,-0.031122 0.02932,0 0.05405,0.010281 0.07419,0.031122 0.02015,0.020701 0.03029,0.045293 0.03029,0.073358 0,0.030705 -0.0099,0.055574 -0.02932,0.075164 -0.01959,0.01959 -0.0446,0.029315 -0.07517,0.029315 -0.03056,0 -0.05571,-0.00973 -0.0753,-0.029315 -0.01945,-0.01959 -0.02932,-0.044459 -0.02932,-0.075164"
         style="fill:#254aa5;fill-opacity:1;fill-rule:nonzero;stroke:none;stroke-width:0.138935"
         id="path1529" />
      <g
         id="g1531"
         transform="matrix(0.13893543,0,0,-0.13893543,25.318406,8.1621769)"
         style="fill:#254aa5;fill-opacity:1">
        <path
           d="m 0,0 h -1.822 v -3.088 c 0,-0.204 0.005,-0.391 0.014,-0.563 0.008,-0.17 0.043,-0.322 0.105,-0.448 0.061,-0.129 0.154,-0.229 0.277,-0.304 0.124,-0.075 0.3,-0.112 0.528,-0.112 0.149,0 0.304,0.017 0.462,0.052 0.159,0.035 0.308,0.089 0.449,0.159 l 0.04,-0.937 c -0.177,-0.079 -0.372,-0.136 -0.588,-0.172 -0.215,-0.034 -0.42,-0.052 -0.614,-0.052 -0.37,0 -0.664,0.049 -0.884,0.145 -0.22,0.096 -0.392,0.232 -0.515,0.409 -0.123,0.176 -0.204,0.393 -0.244,0.654 -0.04,0.259 -0.06,0.547 -0.06,0.864 V 0 h -1.345 v 0.871 h 1.345 v 1.755 h 1.03 V 0.871 H 0 Z"
           style="fill:#254aa5;fill-opacity:1;fill-rule:nonzero;stroke:none"
           id="path1533" />
      </g>
      <path
         d="m 25.496257,8.0411364 h 0.143104 v 0.8583431 h -0.143104 z m -0.03307,-0.2197959 c 0,-0.028065 0.01014,-0.052656 0.03029,-0.073358 0.02014,-0.02084 0.04488,-0.031122 0.07433,-0.031122 0.02932,0 0.05405,0.010281 0.07433,0.031122 0.02015,0.020701 0.03015,0.045293 0.03015,0.073358 0,0.030705 -0.0097,0.055574 -0.02932,0.075164 -0.01959,0.01959 -0.0446,0.029315 -0.07516,0.029315 -0.03057,0 -0.05571,-0.00973 -0.0753,-0.029315 -0.01945,-0.01959 -0.02932,-0.044459 -0.02932,-0.075164"
         style="fill:#254aa5;fill-opacity:1;fill-rule:nonzero;stroke:none;stroke-width:0.138935"
         id="path1535" />
      <g
         id="g1537"
         transform="matrix(0.13893543,0,0,-0.13893543,26.554376,8.3935044)"
         style="fill:#254aa5;fill-opacity:1">
        <path
           d="M 0,0 C -0.018,0.528 -0.189,0.952 -0.515,1.269 -0.841,1.585 -1.29,1.744 -1.861,1.744 -2.434,1.744 -2.896,1.585 -3.248,1.269 -3.6,0.952 -3.811,0.528 -3.881,0 Z M 0.884,-2.52 C 0.515,-2.996 0.11,-3.328 -0.33,-3.516 -0.771,-3.705 -1.281,-3.8 -1.861,-3.8 c -0.485,0 -0.92,0.086 -1.307,0.257 -0.387,0.171 -0.715,0.403 -0.983,0.693 -0.269,0.29 -0.475,0.634 -0.621,1.031 -0.145,0.396 -0.217,0.818 -0.217,1.265 0,0.477 0.078,0.913 0.237,1.315 0.159,0.399 0.378,0.743 0.66,1.029 0.281,0.285 0.616,0.508 1.003,0.667 0.387,0.158 0.81,0.237 1.267,0.237 0.431,0 0.827,-0.073 1.189,-0.216 C -0.273,2.331 0.037,2.12 0.297,1.843 0.556,1.564 0.756,1.226 0.897,0.827 1.038,0.425 1.108,-0.03 1.108,-0.539 v -0.33 h -4.989 c 0.017,-0.265 0.081,-0.517 0.192,-0.761 0.109,-0.241 0.252,-0.452 0.429,-0.633 0.176,-0.179 0.382,-0.323 0.62,-0.429 0.237,-0.106 0.497,-0.158 0.779,-0.158 0.448,0 0.826,0.079 1.135,0.239 0.308,0.157 0.585,0.389 0.831,0.698 z"
           style="fill:#254aa5;fill-opacity:1;fill-rule:nonzero;stroke:none"
           id="path1539" />
      </g>
      <g
         id="g1541"
         transform="matrix(0.13893543,0,0,-0.13893543,26.935781,8.6738205)"
         style="fill:#254aa5;fill-opacity:1">
        <path
           d="m 0,0 c 0.202,-0.255 0.425,-0.459 0.667,-0.608 0.242,-0.15 0.548,-0.224 0.917,-0.224 0.159,0 0.319,0.017 0.481,0.052 0.164,0.035 0.311,0.093 0.443,0.172 0.132,0.08 0.238,0.177 0.317,0.296 0.079,0.12 0.119,0.263 0.119,0.43 0,0.166 -0.037,0.304 -0.113,0.41 C 2.757,0.633 2.658,0.724 2.535,0.798 2.412,0.873 2.271,0.933 2.112,0.976 1.954,1.02 1.791,1.06 1.624,1.095 1.333,1.157 1.056,1.228 0.792,1.306 0.528,1.385 0.297,1.488 0.099,1.616 c -0.198,0.128 -0.356,0.293 -0.475,0.495 -0.119,0.202 -0.178,0.462 -0.178,0.78 0,0.297 0.066,0.562 0.198,0.792 0.132,0.228 0.308,0.418 0.527,0.566 0.221,0.151 0.467,0.265 0.74,0.344 0.273,0.08 0.554,0.119 0.845,0.119 0.439,0 0.847,-0.088 1.221,-0.265 C 3.351,4.271 3.644,3.987 3.854,3.591 L 2.996,3.022 C 2.864,3.242 2.69,3.42 2.476,3.557 2.259,3.694 1.998,3.762 1.69,3.762 1.549,3.762 1.406,3.743 1.261,3.708 1.116,3.674 0.986,3.619 0.872,3.551 0.757,3.479 0.662,3.39 0.587,3.279 0.513,3.169 0.476,3.044 0.476,2.903 0.476,2.771 0.517,2.659 0.601,2.566 0.685,2.475 0.798,2.394 0.944,2.322 1.089,2.252 1.256,2.19 1.446,2.139 1.634,2.084 1.831,2.041 2.033,2.007 2.305,1.952 2.565,1.885 2.812,1.801 3.058,1.717 3.274,1.604 3.458,1.464 3.644,1.323 3.789,1.148 3.894,0.936 4,0.727 4.052,0.465 4.052,0.158 4.052,-0.195 3.982,-0.493 3.841,-0.74 3.7,-0.987 3.514,-1.187 3.28,-1.34 3.047,-1.495 2.783,-1.607 2.488,-1.678 2.193,-1.748 1.892,-1.782 1.584,-1.782 c -0.528,0 -0.983,0.08 -1.366,0.244 -0.383,0.162 -0.728,0.463 -1.036,0.904 z"
           style="fill:#254aa5;fill-opacity:1;fill-rule:nonzero;stroke:none"
           id="path1543" />
      </g>
      <g
         id="g1545"
         transform="matrix(0.13893543,0,0,-0.13893543,7.1336061,2.182924)"
         style="fill:#254aa5;fill-opacity:1">
        <path
           d="m 0,0 c -1.659,1.414 -3.485,2.634 -5.446,3.628 -3.742,1.897 -7.968,2.974 -12.443,2.974 -15.229,0 -27.618,-12.389 -27.618,-27.619 0,-15.228 12.389,-27.617 27.618,-27.617 4.475,0 8.701,1.076 12.443,2.974 -1.961,0.994 -3.787,2.214 -5.446,3.628 -2.201,-0.736 -4.552,-1.139 -6.997,-1.139 -12.216,0 -22.155,9.939 -22.155,22.154 0,12.217 9.939,22.156 22.155,22.156 2.445,0 4.796,-0.405 6.997,-1.139 1.949,-0.65 3.779,-1.561 5.446,-2.696 2.608,-1.777 4.818,-4.094 6.468,-6.791 L 4.745,-5.22 C 3.39,-3.283 1.794,-1.529 0,0"
           style="fill:#254aa5;fill-opacity:1;fill-rule:nonzero;stroke:none"
           id="path1547" />
      </g>
      <g
         id="g1549"
         transform="matrix(0.13893543,0,0,-0.13893543,8.1057512,1.2657417)"
         style="fill:#254aa5;fill-opacity:1">
        <path
           d="m 0,0 c -4.475,0 -8.701,-1.076 -12.443,-2.974 1.961,-0.994 3.787,-2.213 5.446,-3.628 2.201,0.735 4.552,1.139 6.997,1.139 12.216,0 22.155,-9.938 22.155,-22.155 0,-12.216 -9.939,-22.154 -22.155,-22.154 -2.445,0 -4.796,0.403 -6.997,1.138 -1.949,0.651 -3.779,1.561 -5.446,2.696 -2.627,1.791 -4.852,4.128 -6.506,6.852 l -3.726,-4.271 c 1.363,-1.958 2.974,-3.732 4.786,-5.277 1.659,-1.414 3.485,-2.634 5.446,-3.628 3.742,-1.897 7.968,-2.973 12.443,-2.973 15.229,0 27.618,12.388 27.618,27.617 C 27.618,-12.389 15.229,0 0,0"
           style="fill:#254aa5;fill-opacity:1;fill-rule:nonzero;stroke:none"
           id="path1551" />
      </g>
      <g
         id="g1553"
         transform="matrix(0.13893543,0,0,-0.13893543,6.6370926,6.4386412)"
         style="fill:#254aa5;fill-opacity:1">
        <path
           d="M 0,0 Z"
           style="fill:#254aa5;fill-opacity:1;fill-rule:nonzero;stroke:none"
           id="path1555" />
      </g>
      <g
         id="g1557"
         transform="matrix(0.13893543,0,0,-0.13893543,6.637162,6.4387802)"
         style="fill:#254aa5;fill-opacity:1">
        <path
           d="M 0,0 V 0.001 Z"
           style="fill:#254aa5;fill-opacity:1;fill-rule:nonzero;stroke:none"
           id="path1559" />
      </g>
      <g
         id="g1561"
         transform="matrix(0.13893543,0,0,-0.13893543,7.6894173,5.5742267)"
         style="fill:#254aa5;fill-opacity:1">
        <path
           d="m 0,0 c 0.849,-1.005 2.954,-3.616 3.721,-3.756 0.046,-0.009 0.496,-0.076 0.826,0.173 0.131,0.098 0.264,0.248 0.33,0.447 0.622,1.851 0.852,4.66 0.852,6.529 0,4.543 -1.11,8.83 -3.062,12.614 L -1.273,11.49 C -0.284,8.979 0.266,6.25 0.266,3.393 0.266,2.605 0.221,1.418 0,0"
           style="fill:#254aa5;fill-opacity:1;fill-rule:nonzero;stroke:none"
           id="path1563" />
      </g>
      <g
         id="g1565"
         transform="matrix(0.13893543,0,0,-0.13893543,5.0662608,4.6335644)"
         style="fill:#254aa5;fill-opacity:1">
        <path
           d="M 0,0 C 0,0 -2.475,3.5 -3.736,3.847 -3.78,3.858 -4.187,3.944 -4.52,3.696 -4.665,3.588 -4.799,3.414 -4.88,3.188 -5.505,1.446 -5.741,-1.517 -5.741,-3.377 c 0,-4.518 1.097,-8.781 3.028,-12.549 l 3.946,4.523 C -0.747,-6.423 -0.328,-2.069 0,0"
           style="fill:#254aa5;fill-opacity:1;fill-rule:nonzero;stroke:none"
           id="path1567" />
      </g>
      <g
         id="g1569"
         transform="matrix(0.13893543,0,0,-0.13893543,7.5498011,5.8698674)"
         style="fill:#254aa5;fill-opacity:1">
        <path
           d="m 0,0 -16.328,18.71 c -2.098,2.393 -3.772,0.191 -4.561,-1.268 -0.454,-0.943 -0.889,-1.979 -1.236,-2.977 0,0 0.46,0.416 1.269,0.195 1.066,-0.291 2.149,-1.395 3.25,-2.74 L -0.547,-7.676 c 2.21,-2.279 3.919,0.104 4.673,1.541 0.41,0.875 0.775,1.775 1.094,2.696 C 4.677,-3.937 4.077,-3.794 3.248,-3.24 2.069,-2.453 0.767,-0.914 0,0"
           style="fill:#254aa5;fill-opacity:1;fill-rule:nonzero;stroke:none"
           id="path1571" />
      </g>
    </g>
  </g>
</svg>
