<svg xmlns="http://www.w3.org/2000/svg" viewBox="0 0 256 142" width="256" height="142">
  <g fill="#000000">
    <rect x="0" y="0" width="29" height="1"/>
    <rect x="142" y="0" width="86" height="1"/>
    <rect x="0" y="1" width="29" height="1"/>
    <rect x="142" y="1" width="86" height="1"/>
    <rect x="0" y="2" width="29" height="1"/>
    <rect x="142" y="2" width="86" height="1"/>
    <rect x="0" y="3" width="29" height="1"/>
    <rect x="142" y="3" width="86" height="1"/>
    <rect x="0" y="4" width="29" height="1"/>
    <rect x="142" y="4" width="86" height="1"/>
    <rect x="0" y="5" width="29" height="1"/>
    <rect x="142" y="5" width="86" height="1"/>
    <rect x="0" y="6" width="29" height="1"/>
    <rect x="142" y="6" width="86" height="1"/>
    <rect x="0" y="7" width="29" height="1"/>
    <rect x="142" y="7" width="86" height="1"/>
    <rect x="0" y="8" width="29" height="1"/>
    <rect x="142" y="8" width="86" height="1"/>
    <rect x="0" y="9" width="29" height="1"/>
    <rect x="142" y="9" width="86" height="1"/>
    <rect x="0" y="10" width="29" height="1"/>
    <rect x="142" y="10" width="86" height="1"/>
    <rect x="0" y="11" width="29" height="1"/>
    <rect x="142" y="11" width="86" height="1"/>
    <rect x="0" y="12" width="29" height="1"/>
    <rect x="142" y="12" width="86" height="1"/>
    <rect x="0" y="13" width="29" height="1"/>
    <rect x="142" y="13" width="86" height="1"/>
    <rect x="0" y="14" width="29" height="1"/>
    <rect x="142" y="14" width="86" height="1"/>
    <rect x="0" y="15" width="29" height="1"/>
    <rect x="142" y="15" width="86" height="1"/>
    <rect x="0" y="16" width="29" height="1"/>
    <rect x="142" y="16" width="86" height="1"/>
    <rect x="0" y="17" width="29" height="1"/>
    <rect x="142" y="17" width="86" height="1"/>
    <rect x="0" y="18" width="29" height="1"/>
    <rect x="142" y="18" width="86" height="1"/>
    <rect x="0" y="19" width="29" height="1"/>
    <rect x="142" y="19" width="86" height="1"/>
    <rect x="0" y="20" width="29" height="1"/>
    <rect x="142" y="20" width="86" height="1"/>
    <rect x="0" y="21" width="29" height="1"/>
    <rect x="142" y="21" width="86" height="1"/>
    <rect x="0" y="22" width="29" height="1"/>
    <rect x="142" y="22" width="86" height="1"/>
    <rect x="0" y="23" width="29" height="1"/>
    <rect x="142" y="23" width="86" height="1"/>
    <rect x="0" y="24" width="29" height="1"/>
    <rect x="142" y="24" width="86" height="1"/>
    <rect x="0" y="25" width="29" height="1"/>
    <rect x="142" y="25" width="86" height="1"/>
    <rect x="0" y="26" width="29" height="1"/>
    <rect x="142" y="26" width="86" height="1"/>
    <rect x="0" y="27" width="29" height="1"/>
    <rect x="142" y="27" width="86" height="1"/>
    <rect x="0" y="28" width="29" height="1"/>
    <rect x="114" y="28" width="142" height="1"/>
    <rect x="0" y="29" width="29" height="1"/>
    <rect x="114" y="29" width="28" height="1"/>
    <rect x="199" y="29" width="57" height="1"/>
    <rect x="0" y="30" width="29" height="1"/>
    <rect x="114" y="30" width="28" height="1"/>
    <rect x="199" y="30" width="57" height="1"/>
    <rect x="0" y="31" width="29" height="1"/>
    <rect x="114" y="31" width="28" height="1"/>
    <rect x="199" y="31" width="57" height="1"/>
    <rect x="0" y="32" width="29" height="1"/>
    <rect x="114" y="32" width="28" height="1"/>
    <rect x="199" y="32" width="57" height="1"/>
    <rect x="0" y="33" width="29" height="1"/>
    <rect x="114" y="33" width="28" height="1"/>
    <rect x="199" y="33" width="57" height="1"/>
    <rect x="0" y="34" width="29" height="1"/>
    <rect x="114" y="34" width="28" height="1"/>
    <rect x="199" y="34" width="57" height="1"/>
    <rect x="0" y="35" width="29" height="1"/>
    <rect x="114" y="35" width="28" height="1"/>
    <rect x="199" y="35" width="57" height="1"/>
    <rect x="0" y="36" width="29" height="1"/>
    <rect x="114" y="36" width="28" height="1"/>
    <rect x="199" y="36" width="57" height="1"/>
    <rect x="0" y="37" width="29" height="1"/>
    <rect x="114" y="37" width="28" height="1"/>
    <rect x="199" y="37" width="57" height="1"/>
    <rect x="0" y="38" width="29" height="1"/>
    <rect x="114" y="38" width="28" height="1"/>
    <rect x="199" y="38" width="57" height="1"/>
    <rect x="0" y="39" width="29" height="1"/>
    <rect x="114" y="39" width="28" height="1"/>
    <rect x="199" y="39" width="57" height="1"/>
    <rect x="0" y="40" width="29" height="1"/>
    <rect x="114" y="40" width="28" height="1"/>
    <rect x="199" y="40" width="57" height="1"/>
    <rect x="0" y="41" width="29" height="1"/>
    <rect x="114" y="41" width="28" height="1"/>
    <rect x="199" y="41" width="57" height="1"/>
    <rect x="0" y="42" width="29" height="1"/>
    <rect x="114" y="42" width="28" height="1"/>
    <rect x="199" y="42" width="57" height="1"/>
    <rect x="0" y="43" width="29" height="1"/>
    <rect x="114" y="43" width="28" height="1"/>
    <rect x="199" y="43" width="57" height="1"/>
    <rect x="0" y="44" width="29" height="1"/>
    <rect x="114" y="44" width="28" height="1"/>
    <rect x="199" y="44" width="57" height="1"/>
    <rect x="0" y="45" width="29" height="1"/>
    <rect x="114" y="45" width="28" height="1"/>
    <rect x="199" y="45" width="57" height="1"/>
    <rect x="0" y="46" width="29" height="1"/>
    <rect x="114" y="46" width="28" height="1"/>
    <rect x="199" y="46" width="57" height="1"/>
    <rect x="0" y="47" width="29" height="1"/>
    <rect x="114" y="47" width="28" height="1"/>
    <rect x="199" y="47" width="57" height="1"/>
    <rect x="0" y="48" width="29" height="1"/>
    <rect x="114" y="48" width="28" height="1"/>
    <rect x="199" y="48" width="57" height="1"/>
    <rect x="0" y="49" width="29" height="1"/>
    <rect x="114" y="49" width="28" height="1"/>
    <rect x="199" y="49" width="57" height="1"/>
    <rect x="0" y="50" width="29" height="1"/>
    <rect x="114" y="50" width="28" height="1"/>
    <rect x="199" y="50" width="57" height="1"/>
    <rect x="0" y="51" width="29" height="1"/>
    <rect x="114" y="51" width="28" height="1"/>
    <rect x="199" y="51" width="57" height="1"/>
    <rect x="0" y="52" width="29" height="1"/>
    <rect x="114" y="52" width="28" height="1"/>
    <rect x="199" y="52" width="57" height="1"/>
    <rect x="0" y="53" width="29" height="1"/>
    <rect x="114" y="53" width="28" height="1"/>
    <rect x="199" y="53" width="57" height="1"/>
    <rect x="0" y="54" width="29" height="1"/>
    <rect x="114" y="54" width="28" height="1"/>
    <rect x="199" y="54" width="57" height="1"/>
    <rect x="0" y="55" width="29" height="1"/>
    <rect x="114" y="55" width="28" height="1"/>
    <rect x="199" y="55" width="57" height="1"/>
    <rect x="0" y="56" width="29" height="1"/>
    <rect x="114" y="56" width="28" height="1"/>
    <rect x="199" y="56" width="57" height="1"/>
    <rect x="0" y="57" width="29" height="1"/>
    <rect x="57" y="57" width="29" height="1"/>
    <rect x="114" y="57" width="28" height="1"/>
    <rect x="170" y="57" width="29" height="1"/>
    <rect x="227" y="57" width="29" height="1"/>
    <rect x="0" y="58" width="29" height="1"/>
    <rect x="57" y="58" width="29" height="1"/>
    <rect x="114" y="58" width="28" height="1"/>
    <rect x="170" y="58" width="29" height="1"/>
    <rect x="227" y="58" width="29" height="1"/>
    <rect x="0" y="59" width="29" height="1"/>
    <rect x="57" y="59" width="29" height="1"/>
    <rect x="114" y="59" width="28" height="1"/>
    <rect x="170" y="59" width="29" height="1"/>
    <rect x="227" y="59" width="29" height="1"/>
    <rect x="0" y="60" width="29" height="1"/>
    <rect x="57" y="60" width="29" height="1"/>
    <rect x="114" y="60" width="28" height="1"/>
    <rect x="170" y="60" width="29" height="1"/>
    <rect x="227" y="60" width="29" height="1"/>
    <rect x="0" y="61" width="29" height="1"/>
    <rect x="57" y="61" width="29" height="1"/>
    <rect x="114" y="61" width="28" height="1"/>
    <rect x="170" y="61" width="29" height="1"/>
    <rect x="227" y="61" width="29" height="1"/>
    <rect x="0" y="62" width="29" height="1"/>
    <rect x="57" y="62" width="29" height="1"/>
    <rect x="114" y="62" width="28" height="1"/>
    <rect x="170" y="62" width="29" height="1"/>
    <rect x="227" y="62" width="29" height="1"/>
    <rect x="0" y="63" width="29" height="1"/>
    <rect x="57" y="63" width="29" height="1"/>
    <rect x="114" y="63" width="28" height="1"/>
    <rect x="170" y="63" width="29" height="1"/>
    <rect x="227" y="63" width="29" height="1"/>
    <rect x="0" y="64" width="29" height="1"/>
    <rect x="57" y="64" width="29" height="1"/>
    <rect x="114" y="64" width="28" height="1"/>
    <rect x="170" y="64" width="29" height="1"/>
    <rect x="227" y="64" width="29" height="1"/>
    <rect x="0" y="65" width="29" height="1"/>
    <rect x="57" y="65" width="29" height="1"/>
    <rect x="114" y="65" width="28" height="1"/>
    <rect x="170" y="65" width="29" height="1"/>
    <rect x="227" y="65" width="29" height="1"/>
    <rect x="0" y="66" width="29" height="1"/>
    <rect x="57" y="66" width="29" height="1"/>
    <rect x="114" y="66" width="28" height="1"/>
    <rect x="170" y="66" width="29" height="1"/>
    <rect x="227" y="66" width="29" height="1"/>
    <rect x="0" y="67" width="29" height="1"/>
    <rect x="57" y="67" width="29" height="1"/>
    <rect x="114" y="67" width="28" height="1"/>
    <rect x="170" y="67" width="29" height="1"/>
    <rect x="227" y="67" width="29" height="1"/>
    <rect x="0" y="68" width="29" height="1"/>
    <rect x="57" y="68" width="29" height="1"/>
    <rect x="114" y="68" width="28" height="1"/>
    <rect x="170" y="68" width="29" height="1"/>
    <rect x="227" y="68" width="29" height="1"/>
    <rect x="0" y="69" width="29" height="1"/>
    <rect x="57" y="69" width="29" height="1"/>
    <rect x="114" y="69" width="28" height="1"/>
    <rect x="170" y="69" width="29" height="1"/>
    <rect x="227" y="69" width="29" height="1"/>
    <rect x="0" y="70" width="29" height="1"/>
    <rect x="57" y="70" width="29" height="1"/>
    <rect x="114" y="70" width="28" height="1"/>
    <rect x="170" y="70" width="29" height="1"/>
    <rect x="227" y="70" width="29" height="1"/>
    <rect x="0" y="71" width="29" height="1"/>
    <rect x="57" y="71" width="29" height="1"/>
    <rect x="114" y="71" width="28" height="1"/>
    <rect x="170" y="71" width="29" height="1"/>
    <rect x="227" y="71" width="29" height="1"/>
    <rect x="0" y="72" width="29" height="1"/>
    <rect x="57" y="72" width="29" height="1"/>
    <rect x="114" y="72" width="28" height="1"/>
    <rect x="170" y="72" width="29" height="1"/>
    <rect x="227" y="72" width="29" height="1"/>
    <rect x="0" y="73" width="29" height="1"/>
    <rect x="57" y="73" width="29" height="1"/>
    <rect x="114" y="73" width="28" height="1"/>
    <rect x="170" y="73" width="29" height="1"/>
    <rect x="227" y="73" width="29" height="1"/>
    <rect x="0" y="74" width="29" height="1"/>
    <rect x="57" y="74" width="29" height="1"/>
    <rect x="114" y="74" width="28" height="1"/>
    <rect x="170" y="74" width="29" height="1"/>
    <rect x="227" y="74" width="29" height="1"/>
    <rect x="0" y="75" width="29" height="1"/>
    <rect x="57" y="75" width="29" height="1"/>
    <rect x="114" y="75" width="28" height="1"/>
    <rect x="170" y="75" width="29" height="1"/>
    <rect x="227" y="75" width="29" height="1"/>
    <rect x="0" y="76" width="29" height="1"/>
    <rect x="57" y="76" width="29" height="1"/>
    <rect x="114" y="76" width="28" height="1"/>
    <rect x="170" y="76" width="29" height="1"/>
    <rect x="227" y="76" width="29" height="1"/>
    <rect x="0" y="77" width="29" height="1"/>
    <rect x="57" y="77" width="29" height="1"/>
    <rect x="114" y="77" width="28" height="1"/>
    <rect x="170" y="77" width="29" height="1"/>
    <rect x="227" y="77" width="29" height="1"/>
    <rect x="0" y="78" width="29" height="1"/>
    <rect x="57" y="78" width="29" height="1"/>
    <rect x="114" y="78" width="28" height="1"/>
    <rect x="170" y="78" width="29" height="1"/>
    <rect x="227" y="78" width="29" height="1"/>
    <rect x="0" y="79" width="29" height="1"/>
    <rect x="57" y="79" width="29" height="1"/>
    <rect x="114" y="79" width="28" height="1"/>
    <rect x="170" y="79" width="29" height="1"/>
    <rect x="227" y="79" width="29" height="1"/>
    <rect x="0" y="80" width="29" height="1"/>
    <rect x="57" y="80" width="29" height="1"/>
    <rect x="114" y="80" width="28" height="1"/>
    <rect x="170" y="80" width="29" height="1"/>
    <rect x="227" y="80" width="29" height="1"/>
    <rect x="0" y="81" width="29" height="1"/>
    <rect x="57" y="81" width="29" height="1"/>
    <rect x="114" y="81" width="28" height="1"/>
    <rect x="170" y="81" width="29" height="1"/>
    <rect x="227" y="81" width="29" height="1"/>
    <rect x="0" y="82" width="29" height="1"/>
    <rect x="57" y="82" width="29" height="1"/>
    <rect x="114" y="82" width="28" height="1"/>
    <rect x="170" y="82" width="29" height="1"/>
    <rect x="227" y="82" width="29" height="1"/>
    <rect x="0" y="83" width="29" height="1"/>
    <rect x="57" y="83" width="29" height="1"/>
    <rect x="114" y="83" width="28" height="1"/>
    <rect x="170" y="83" width="29" height="1"/>
    <rect x="227" y="83" width="29" height="1"/>
    <rect x="0" y="84" width="29" height="1"/>
    <rect x="57" y="84" width="29" height="1"/>
    <rect x="114" y="84" width="28" height="1"/>
    <rect x="170" y="84" width="29" height="1"/>
    <rect x="227" y="84" width="29" height="1"/>
    <rect x="0" y="85" width="57" height="1"/>
    <rect x="114" y="85" width="57" height="1"/>
    <rect x="227" y="85" width="29" height="1"/>
    <rect x="0" y="86" width="57" height="1"/>
    <rect x="114" y="86" width="57" height="1"/>
    <rect x="227" y="86" width="29" height="1"/>
    <rect x="0" y="87" width="57" height="1"/>
    <rect x="114" y="87" width="57" height="1"/>
    <rect x="227" y="87" width="29" height="1"/>
    <rect x="0" y="88" width="57" height="1"/>
    <rect x="114" y="88" width="57" height="1"/>
    <rect x="227" y="88" width="29" height="1"/>
    <rect x="0" y="89" width="57" height="1"/>
    <rect x="114" y="89" width="57" height="1"/>
    <rect x="227" y="89" width="29" height="1"/>
    <rect x="0" y="90" width="57" height="1"/>
    <rect x="114" y="90" width="57" height="1"/>
    <rect x="227" y="90" width="29" height="1"/>
    <rect x="0" y="91" width="57" height="1"/>
    <rect x="114" y="91" width="57" height="1"/>
    <rect x="227" y="91" width="29" height="1"/>
    <rect x="0" y="92" width="57" height="1"/>
    <rect x="114" y="92" width="57" height="1"/>
    <rect x="227" y="92" width="29" height="1"/>
    <rect x="0" y="93" width="57" height="1"/>
    <rect x="114" y="93" width="57" height="1"/>
    <rect x="227" y="93" width="29" height="1"/>
    <rect x="0" y="94" width="57" height="1"/>
    <rect x="114" y="94" width="57" height="1"/>
    <rect x="227" y="94" width="29" height="1"/>
    <rect x="0" y="95" width="57" height="1"/>
    <rect x="114" y="95" width="57" height="1"/>
    <rect x="227" y="95" width="29" height="1"/>
    <rect x="0" y="96" width="57" height="1"/>
    <rect x="114" y="96" width="57" height="1"/>
    <rect x="227" y="96" width="29" height="1"/>
    <rect x="0" y="97" width="57" height="1"/>
    <rect x="114" y="97" width="57" height="1"/>
    <rect x="227" y="97" width="29" height="1"/>
    <rect x="0" y="98" width="57" height="1"/>
    <rect x="114" y="98" width="57" height="1"/>
    <rect x="227" y="98" width="29" height="1"/>
    <rect x="0" y="99" width="57" height="1"/>
    <rect x="114" y="99" width="57" height="1"/>
    <rect x="227" y="99" width="29" height="1"/>
    <rect x="0" y="100" width="57" height="1"/>
    <rect x="114" y="100" width="57" height="1"/>
    <rect x="227" y="100" width="29" height="1"/>
    <rect x="0" y="101" width="57" height="1"/>
    <rect x="114" y="101" width="57" height="1"/>
    <rect x="227" y="101" width="29" height="1"/>
    <rect x="0" y="102" width="57" height="1"/>
    <rect x="114" y="102" width="57" height="1"/>
    <rect x="227" y="102" width="29" height="1"/>
    <rect x="0" y="103" width="57" height="1"/>
    <rect x="114" y="103" width="57" height="1"/>
    <rect x="227" y="103" width="29" height="1"/>
    <rect x="0" y="104" width="57" height="1"/>
    <rect x="114" y="104" width="57" height="1"/>
    <rect x="227" y="104" width="29" height="1"/>
    <rect x="0" y="105" width="57" height="1"/>
    <rect x="114" y="105" width="57" height="1"/>
    <rect x="227" y="105" width="29" height="1"/>
    <rect x="0" y="106" width="57" height="1"/>
    <rect x="114" y="106" width="57" height="1"/>
    <rect x="227" y="106" width="29" height="1"/>
    <rect x="0" y="107" width="57" height="1"/>
    <rect x="114" y="107" width="57" height="1"/>
    <rect x="227" y="107" width="29" height="1"/>
    <rect x="0" y="108" width="57" height="1"/>
    <rect x="114" y="108" width="57" height="1"/>
    <rect x="227" y="108" width="29" height="1"/>
    <rect x="0" y="109" width="57" height="1"/>
    <rect x="114" y="109" width="57" height="1"/>
    <rect x="227" y="109" width="29" height="1"/>
    <rect x="0" y="110" width="57" height="1"/>
    <rect x="114" y="110" width="57" height="1"/>
    <rect x="227" y="110" width="29" height="1"/>
    <rect x="0" y="111" width="57" height="1"/>
    <rect x="114" y="111" width="57" height="1"/>
    <rect x="227" y="111" width="29" height="1"/>
    <rect x="0" y="112" width="57" height="1"/>
    <rect x="114" y="112" width="57" height="1"/>
    <rect x="227" y="112" width="29" height="1"/>
    <rect x="0" y="113" width="85" height="1"/>
    <rect x="114" y="113" width="142" height="1"/>
    <rect x="0" y="114" width="29" height="1"/>
    <rect x="57" y="114" width="29" height="1"/>
    <rect x="142" y="114" width="86" height="1"/>
    <rect x="0" y="115" width="29" height="1"/>
    <rect x="57" y="115" width="29" height="1"/>
    <rect x="142" y="115" width="86" height="1"/>
    <rect x="0" y="116" width="29" height="1"/>
    <rect x="57" y="116" width="29" height="1"/>
    <rect x="142" y="116" width="86" height="1"/>
    <rect x="0" y="117" width="29" height="1"/>
    <rect x="57" y="117" width="29" height="1"/>
    <rect x="142" y="117" width="86" height="1"/>
    <rect x="0" y="118" width="29" height="1"/>
    <rect x="57" y="118" width="29" height="1"/>
    <rect x="142" y="118" width="86" height="1"/>
    <rect x="0" y="119" width="29" height="1"/>
    <rect x="57" y="119" width="29" height="1"/>
    <rect x="142" y="119" width="86" height="1"/>
    <rect x="0" y="120" width="29" height="1"/>
    <rect x="57" y="120" width="29" height="1"/>
    <rect x="142" y="120" width="86" height="1"/>
    <rect x="0" y="121" width="29" height="1"/>
    <rect x="57" y="121" width="29" height="1"/>
    <rect x="142" y="121" width="86" height="1"/>
    <rect x="0" y="122" width="29" height="1"/>
    <rect x="57" y="122" width="29" height="1"/>
    <rect x="142" y="122" width="86" height="1"/>
    <rect x="0" y="123" width="29" height="1"/>
    <rect x="57" y="123" width="29" height="1"/>
    <rect x="142" y="123" width="86" height="1"/>
    <rect x="0" y="124" width="29" height="1"/>
    <rect x="57" y="124" width="29" height="1"/>
    <rect x="142" y="124" width="86" height="1"/>
    <rect x="0" y="125" width="29" height="1"/>
    <rect x="57" y="125" width="29" height="1"/>
    <rect x="142" y="125" width="86" height="1"/>
    <rect x="0" y="126" width="29" height="1"/>
    <rect x="57" y="126" width="29" height="1"/>
    <rect x="142" y="126" width="86" height="1"/>
    <rect x="0" y="127" width="29" height="1"/>
    <rect x="57" y="127" width="29" height="1"/>
    <rect x="142" y="127" width="86" height="1"/>
    <rect x="0" y="128" width="29" height="1"/>
    <rect x="57" y="128" width="29" height="1"/>
    <rect x="142" y="128" width="86" height="1"/>
    <rect x="0" y="129" width="29" height="1"/>
    <rect x="57" y="129" width="29" height="1"/>
    <rect x="142" y="129" width="86" height="1"/>
    <rect x="0" y="130" width="29" height="1"/>
    <rect x="57" y="130" width="29" height="1"/>
    <rect x="142" y="130" width="86" height="1"/>
    <rect x="0" y="131" width="29" height="1"/>
    <rect x="57" y="131" width="29" height="1"/>
    <rect x="142" y="131" width="86" height="1"/>
    <rect x="0" y="132" width="29" height="1"/>
    <rect x="57" y="132" width="29" height="1"/>
    <rect x="142" y="132" width="86" height="1"/>
    <rect x="0" y="133" width="29" height="1"/>
    <rect x="57" y="133" width="29" height="1"/>
    <rect x="142" y="133" width="86" height="1"/>
    <rect x="0" y="134" width="29" height="1"/>
    <rect x="57" y="134" width="29" height="1"/>
    <rect x="142" y="134" width="86" height="1"/>
    <rect x="0" y="135" width="29" height="1"/>
    <rect x="57" y="135" width="29" height="1"/>
    <rect x="142" y="135" width="86" height="1"/>
    <rect x="0" y="136" width="29" height="1"/>
    <rect x="57" y="136" width="29" height="1"/>
    <rect x="142" y="136" width="86" height="1"/>
    <rect x="0" y="137" width="29" height="1"/>
    <rect x="57" y="137" width="29" height="1"/>
    <rect x="142" y="137" width="86" height="1"/>
    <rect x="0" y="138" width="29" height="1"/>
    <rect x="57" y="138" width="29" height="1"/>
    <rect x="142" y="138" width="86" height="1"/>
    <rect x="0" y="139" width="29" height="1"/>
    <rect x="57" y="139" width="29" height="1"/>
    <rect x="142" y="139" width="86" height="1"/>
    <rect x="0" y="140" width="29" height="1"/>
    <rect x="57" y="140" width="29" height="1"/>
    <rect x="142" y="140" width="86" height="1"/>
    <rect x="0" y="141" width="29" height="1"/>
    <rect x="57" y="141" width="29" height="1"/>
    <rect x="142" y="141" width="86" height="1"/>
  </g>
</svg>